<svg xmlns="http://www.w3.org/2000/svg" xmlns:xlink="http://www.w3.org/1999/xlink" width="500" zoomAndPan="magnify" viewBox="0 0 375 374.999991" height="500" preserveAspectRatio="xMidYMid meet" version="1.2"><defs><filter x="0%" y="0%" width="100%" filterUnits="objectBoundingBox" id="72c19d1c48" height="100%"><feColorMatrix values="0 0 0 0 1 0 0 0 0 1 0 0 0 0 1 0 0 0 1 0" type="matrix" in="SourceGraphic"/></filter><clipPath id="b7d2dd642d"><path d="M 0.480469 0.0390625 L 145 0.0390625 L 145 111 L 0.480469 111 Z M 0.480469 0.0390625 "/></clipPath><clipPath id="bea122bf40"><rect x="0" width="146" y="0" height="112"/></clipPath><clipPath id="4e45d58ad9"><path d="M 1 1 L 244.679688 1 L 244.679688 273.960938 L 1 273.960938 Z M 1 1 "/></clipPath><clipPath id="bea9f35493"><rect x="0" width="245" y="0" height="274"/></clipPath><clipPath id="01cb24ac69"><path d="M 0.320312 0.0390625 L 197.839844 0.0390625 L 197.839844 69.878906 L 0.320312 69.878906 Z M 0.320312 0.0390625 "/></clipPath><clipPath id="25c848d232"><rect x="0" width="198" y="0" height="70"/></clipPath><clipPath id="481c99c5c3"><path d="M 0.320312 1 L 153.679688 1 L 153.679688 82.441406 L 0.320312 82.441406 Z M 0.320312 1 "/></clipPath><clipPath id="8877353ac1"><rect x="0" width="154" y="0" height="83"/></clipPath><clipPath id="13a734d28d"><path d="M 0.441406 0.199219 L 30.679688 0.199219 L 30.679688 3 L 0.441406 3 Z M 0.441406 0.199219 "/></clipPath><clipPath id="14497a3980"><rect x="0" width="31" y="0" height="4"/></clipPath><clipPath id="94ab8c9c05"><path d="M 0.320312 0.640625 L 135 0.640625 L 135 105 L 0.320312 105 Z M 0.320312 0.640625 "/></clipPath><clipPath id="724341d5b3"><rect x="0" width="136" y="0" height="106"/></clipPath><clipPath id="da528dc726"><path d="M 0.480469 0.0390625 L 215 0.0390625 L 215 140.679688 L 0.480469 140.679688 Z M 0.480469 0.0390625 "/></clipPath><clipPath id="662a7c0259"><rect x="0" width="216" y="0" height="141"/></clipPath><clipPath id="4b407ddb69"><path d="M 0.480469 0.0390625 L 202.800781 0.0390625 L 202.800781 80 L 0.480469 80 Z M 0.480469 0.0390625 "/></clipPath><clipPath id="d0f43b403d"><rect x="0" width="203" y="0" height="81"/></clipPath></defs><g id="e9fa2cbb18"><g mask="url(#cf2a3fd3d6)" transform="matrix(1,0,0,1,132,131)"><g clip-path="url(#bea122bf40)"><g clip-rule="nonzero" clip-path="url(#b7d2dd642d)"><path style=" stroke:none;fill-rule:nonzero;fill:#ffffff;fill-opacity:1;" d="M 0.871094 55.707031 C 0.871094 86.160156 25.644531 110.9375 56.101562 110.9375 C 74.808594 110.9375 91.363281 101.578125 101.359375 87.308594 L 56.097656 87.308594 L 56.097656 43.464844 L 139.167969 43.464844 C 142.808594 29.742188 144.785156 15.332031 144.847656 0.472656 L 56.097656 0.472656 C 25.640625 0.480469 0.871094 25.253906 0.871094 55.707031 Z M 0.871094 55.707031 "/></g></g><mask id="cf2a3fd3d6"><g filter="url(#72c19d1c48)"><rect x="0" width="375" y="0" height="374.999991" style="fill:#000000;fill-opacity:0.79;stroke:none;"/></g></mask></g><g mask="url(#e1c0aed5bd)" transform="matrix(1,0,0,1,27,27)"><g clip-path="url(#bea9f35493)"><g clip-rule="nonzero" clip-path="url(#4e45d58ad9)"><path style=" stroke:none;fill-rule:nonzero;fill:#ffffff;fill-opacity:1;" d="M 62.027344 159.707031 C 62.027344 105.078125 106.46875 60.636719 161.097656 60.636719 L 244.34375 60.636719 L 202.230469 18.523438 C 179.144531 -4.5625 141.71875 -4.5625 118.632812 18.523438 L 18.523438 118.636719 C -4.5625 141.722656 -4.5625 179.148438 18.523438 202.234375 L 89.882812 273.59375 C 111.597656 272.308594 132.21875 266.941406 150.988281 258.265625 C 101.09375 253.1875 62.027344 210.925781 62.027344 159.707031 Z M 62.027344 159.707031 "/></g></g><mask id="e1c0aed5bd"><g filter="url(#72c19d1c48)"><rect x="0" width="375" y="0" height="374.999991" style="fill:#000000;fill-opacity:0.79;stroke:none;"/></g></mask></g><g mask="url(#35564262c3)" transform="matrix(1,0,0,1,148,131)"><g clip-path="url(#25c848d232)"><g clip-rule="nonzero" clip-path="url(#01cb24ac69)"><path style=" stroke:none;fill-rule:nonzero;fill:#ffffff;fill-opacity:1;" d="M 0.648438 17.105469 C 11.542969 30.898438 24.917969 42.640625 40.097656 51.664062 L 40.097656 43.46875 L 139.164062 43.46875 L 139.164062 69.363281 C 160.632812 65.441406 180.425781 56.742188 197.414062 44.40625 C 195.15625 33.5 189.808594 23.105469 181.34375 14.640625 L 167.1875 0.484375 L 40.097656 0.484375 C 24.660156 0.480469 10.683594 6.851562 0.648438 17.105469 Z M 0.648438 17.105469 "/></g></g><mask id="35564262c3"><g filter="url(#72c19d1c48)"><rect x="0" width="375" y="0" height="374.999991" style="fill:#000000;fill-opacity:0.79;stroke:none;"/></g></mask></g><g mask="url(#a13a419cc6)" transform="matrix(1,0,0,1,118,27)"><g clip-path="url(#8877353ac1)"><g clip-rule="nonzero" clip-path="url(#481c99c5c3)"><path style=" stroke:none;fill-rule:nonzero;fill:#ffffff;fill-opacity:1;" d="M 70.097656 60.636719 L 153.351562 60.636719 L 111.234375 18.523438 C 88.148438 -4.5625 50.722656 -4.5625 27.636719 18.523438 L 0.457031 45.703125 C 1.632812 58.355469 4.453125 70.53125 8.699219 82.015625 C 25.589844 68.636719 46.929688 60.636719 70.097656 60.636719 Z M 70.097656 60.636719 "/></g></g><mask id="a13a419cc6"><g filter="url(#72c19d1c48)"><rect x="0" width="375" y="0" height="374.999991" style="fill:#000000;fill-opacity:0.79;stroke:none;"/></g></mask></g><g mask="url(#f88caf8a30)" transform="matrix(1,0,0,1,241,85)"><g clip-path="url(#14497a3980)"><g clip-rule="nonzero" clip-path="url(#13a734d28d)"><path style=" stroke:none;fill-rule:nonzero;fill:#ffffff;fill-opacity:1;" d="M 30.351562 2.636719 L 28.132812 0.414062 C 27.972656 0.414062 27.816406 0.410156 27.660156 0.410156 C 18.507812 0.410156 9.539062 1.183594 0.800781 2.636719 Z M 30.351562 2.636719 "/></g></g><mask id="f88caf8a30"><g filter="url(#72c19d1c48)"><rect x="0" width="375" y="0" height="374.999991" style="fill:#000000;fill-opacity:0.79;stroke:none;"/></g></mask></g><g mask="url(#da17c6920d)" transform="matrix(1,0,0,1,106,242)"><g clip-path="url(#724341d5b3)"><g clip-rule="nonzero" clip-path="url(#94ab8c9c05)"><path style=" stroke:none;fill-rule:nonzero;fill:#ffffff;fill-opacity:1;" d="M 82.097656 43.777344 C 48.355469 43.777344 18.503906 26.816406 0.609375 0.980469 C 0.566406 2.492188 0.539062 4.007812 0.539062 5.527344 C 0.539062 23.300781 3.410156 40.40625 8.699219 56.410156 L 39.636719 87.351562 C 62.722656 110.4375 100.148438 110.4375 123.234375 87.351562 L 134.960938 75.625 L 134.960938 28.460938 C 119.648438 38.15625 101.523438 43.777344 82.097656 43.777344 Z M 82.097656 43.777344 "/></g></g><mask id="da17c6920d"><g filter="url(#72c19d1c48)"><rect x="0" width="375" y="0" height="374.999991" style="fill:#000000;fill-opacity:0.79;stroke:none;"/></g></mask></g><g mask="url(#df4f5ab319)" transform="matrix(1,0,0,1,132,131)"><g clip-path="url(#662a7c0259)"><g clip-rule="nonzero" clip-path="url(#da528dc726)"><path style=" stroke:none;fill-rule:nonzero;fill:#ffffff;fill-opacity:1;" d="M 197.351562 14.636719 L 183.191406 0.480469 L 56.097656 0.480469 C 25.640625 0.480469 0.863281 25.253906 0.863281 55.710938 C 0.863281 86.164062 25.640625 110.941406 56.097656 110.941406 C 74.804688 110.941406 91.359375 101.582031 101.355469 87.3125 L 56.097656 87.3125 L 56.097656 43.464844 L 155.164062 43.464844 L 155.164062 140.414062 L 197.34375 98.234375 C 220.4375 75.148438 220.4375 37.722656 197.351562 14.636719 Z M 197.351562 14.636719 "/></g></g><mask id="df4f5ab319"><g filter="url(#72c19d1c48)"><rect x="0" width="375" y="0" height="374.999991" style="fill:#000000;fill-opacity:0.79;stroke:none;"/></g></mask></g><g mask="url(#29498e74b5)" transform="matrix(1,0,0,1,132,131)"><g clip-path="url(#d0f43b403d)"><g clip-rule="nonzero" clip-path="url(#4b407ddb69)"><path style=" stroke:none;fill-rule:nonzero;fill:#ffffff;fill-opacity:1;" d="M 0.871094 55.707031 C 0.871094 64.277344 2.832031 72.398438 6.328125 79.640625 C 6.230469 78.296875 6.164062 76.941406 6.164062 75.574219 C 6.164062 45.117188 30.941406 20.339844 61.398438 20.339844 L 202.355469 20.339844 C 200.828125 18.363281 199.167969 16.449219 197.355469 14.636719 L 183.195312 0.480469 L 56.097656 0.480469 C 25.640625 0.480469 0.871094 25.253906 0.871094 55.707031 Z M 0.871094 55.707031 "/></g></g><mask id="29498e74b5"><g filter="url(#72c19d1c48)"><rect x="0" width="375" y="0" height="374.999991" style="fill:#000000;fill-opacity:0.24;stroke:none;"/></g></mask></g></g></svg>